<?xml version="1.0" ?><svg enable-background="new 0 0 192 210.043" id="viber" version="1.1" viewBox="0 0 192 210.043" xml:space="preserve" xmlns="http://www.w3.org/2000/svg" xmlns:xlink="http://www.w3.org/1999/xlink"><g><path d="M116.0039,0H75.9961C34.0918,0,0,34.0859,0,75.9805v36.0391c0,31.1992,19.1719,59.2383,48,70.6602v23.3633   c0,1.582,0.9316,3.0156,2.3789,3.6562c0.5195,0.2305,1.0723,0.3438,1.6211,0.3438c0.9727,0,1.9355-0.3555,2.6855-1.0352   L77.8789,188h38.125C157.9082,188,192,153.9141,192,112.0195V75.9805C192,34.0859,157.9082,0,116.0039,0z" fill="#535353"/><path d="M184,112.0195C184,149.5039,153.498,180,116.0039,180h-39.668c-0.9922,0-1.9492,0.3672-2.6855,1.0352   L56,197.0234v-17.1172c0-1.6953-1.0684-3.207-2.668-3.7695C26.2188,166.5508,8,140.7852,8,112.0195V75.9805   C8,38.4961,38.502,8,75.9961,8h40.0078C153.498,8,184,38.4961,184,75.9805V112.0195z" fill="#D8D8D8"/><path d="M148.8633,121.9727l-24.5859-15.9688c-2.6895-1.7461-5.8867-2.3398-9.0215-1.6914   c-3.1367,0.6602-5.8301,2.5117-7.5801,5.2109l-1.1562,1.7773c-10.6406-3.5156-22.373-8.0078-29.3965-28.3398l2.9082-2.5273h0.002   C85.0234,76.0938,85.5488,68.5,81.207,63.5L61.9746,41.375c-1.4492-1.668-3.9766-1.8398-5.6445-0.3945L44.2559,51.4766   c-10.5938,9.207-5.6426,22.8281-4.0156,27.3047c0.0723,0.1992,0.1602,0.3906,0.2637,0.5781   c0.4199,0.7539,10.4492,18.6484,26.6426,35.1445c16.2598,16.5625,45.6172,31.8594,46.5176,32.3047   c3.3535,2.1758,7.125,3.2188,10.8555,3.2188c6.5508,0,12.9766-3.2109,16.8066-9.1016l8.7129-13.418   C151.2422,125.6523,150.7148,123.1758,148.8633,121.9727z" fill="#535353"/><path d="M134.6172,136.5664c-3.6055,5.5508-11.0508,7.1289-16.9336,3.3359   c-0.293-0.1523-29.4551-15.3398-44.8281-31c-14.3672-14.6367-23.9062-30.8945-25.209-33.1641   c-3.1699-8.8828-2.6094-14.3438,1.8555-18.2227l9.0586-7.8711L75.168,68.75c1.4746,1.6953,1.3047,4.1758-0.3848,5.6445   l-4.9082,4.2656c-1.1953,1.0391-1.666,2.6836-1.1992,4.1953c8.3691,27.1914,24.6406,32.5312,36.5215,36.4336l1.7305,0.5703   c1.7305,0.5859,3.6289-0.082,4.6191-1.6133l2.8379-4.3672c0.5859-0.9023,1.4805-1.5156,2.5195-1.7344   c1.043-0.2227,2.1094-0.0156,3.0137,0.5703l21.2324,13.7891L134.6172,136.5664z" fill="#D8D8D8"/><path d="M105.1289,64.9883c-2.1289-0.6133-4.3398,0.625-4.9434,2.7539c-0.6035,2.125,0.6289,4.3359,2.752,4.9414   c5.9609,1.6953,10.707,6.4531,12.3887,12.418c0.4961,1.7617,2.1016,2.9141,3.8477,2.9141c0.3594,0,0.7246-0.0469,1.0879-0.1484   c2.125-0.6016,3.3633-2.8086,2.7637-4.9375C120.5977,74.3125,113.7383,67.4375,105.1289,64.9883z" fill="#535353"/><path d="M135.5703,88.875c0.3594,0,0.7246-0.0469,1.0879-0.1484c2.127-0.6016,3.3633-2.8125,2.7637-4.9375   c-4.7188-16.7305-18.0371-30.0781-34.7559-34.8359c-2.125-0.6133-4.3379,0.6328-4.9414,2.7539   c-0.6035,2.125,0.6289,4.3359,2.7539,4.9414c14.0664,4,25.2734,15.2344,29.2441,29.3125   C132.2207,87.7227,133.8242,88.875,135.5703,88.875z" fill="#535353"/><path d="M102.9434,30.3281c-2.1289-0.6133-4.3398,0.625-4.9434,2.7539c-0.6035,2.125,0.6289,4.3359,2.752,4.9414   c23.8379,6.7812,42.8242,25.8125,49.5508,49.6641c0.4961,1.7617,2.1016,2.9141,3.8477,2.9141c0.3594,0,0.7246-0.0469,1.0879-0.1484   c2.125-0.6016,3.3633-2.8125,2.7637-4.9375C150.5273,59.0117,129.4297,37.8672,102.9434,30.3281z" fill="#535353"/></g></svg>