<?xml version="1.0" ?><!DOCTYPE svg  PUBLIC '-//W3C//DTD SVG 1.1//EN'  'http://www.w3.org/Graphics/SVG/1.1/DTD/svg11.dtd'><svg enable-background="new 0 0 512 512" id="Layer_1" version="1.1" viewBox="0 0 512 512" xml:space="preserve" xmlns="http://www.w3.org/2000/svg" xmlns:xlink="http://www.w3.org/1999/xlink"><g><path d="M294.2,159.4c3-20,10.4-37.2,21.1-53.2c7.4-11.2,16.2-21.1,26.5-29.6c23-18.9,48.8-31.2,78.9-33.8   c18.9-1.7,37,0.5,53.4,10.4c15.5,9.3,25.5,23,30,40.6c6.8,27.3,2,53.8-5.2,80.2c-7.1,26.2-17.4,51.2-29.9,75.4   c-17.3,33.4-38.3,64.1-61.9,93.3c-17.7,21.9-36.6,42.7-56.8,62.3c-23.2,22.5-47.3,43.9-74.1,62.1c-10.6,7.2-21.9,12.2-35.2,12.2   c-17,0.1-30.9-7-43.6-17.3c-18.1-14.6-29.2-33.8-36.7-55.4c-9-25.7-17.1-51.8-25.2-77.8c-10.1-32.4-19.5-65-29.8-97.2   c-5.8-18.2-11.9-36.3-19.3-54c-5.1-12.1-15.6-12-26-8.8c-11.1,3.5-20.6,9.9-30.1,16.4c-2.8,1.9-4.3,1.8-6.4-1.1   c-4.8-6.8-9.9-13.3-15.2-19.8c-1.8-2.3-1.8-3.7,0.1-5.9c27.4-31.7,57.4-60.6,91.6-85c16.8-12,34.7-22.6,55.4-26.5   c22.1-4.2,36.5,3.2,48.5,22.1c12.5,19.6,16.9,42.1,21.6,64.4c5.8,27.3,8.4,55.2,15.2,82.3c7.3,29,13.8,58.2,25.6,85.9   c1,2.3,2.3,4.4,3.4,6.6c6.5,12.3,15.3,13.4,25.5,3.8c11.5-10.8,20.6-23.4,29.2-36.6c11.1-17,21.8-34.3,30.4-52.7   c6.9-14.7,11-30.2,7.1-46.9c-5.4-22.9-24.8-31.3-45-26C309.4,151.9,302.1,155.3,294.2,159.4z" fill="#A7A7A7"/></g></svg>