<?xml version="1.0" standalone="no"?>
<!DOCTYPE svg PUBLIC "-//W3C//DTD SVG 20010904//EN"
 "http://www.w3.org/TR/2001/REC-SVG-20010904/DTD/svg10.dtd">
<svg version="1.0" xmlns="http://www.w3.org/2000/svg"
 width="512.000000pt" height="512.000000pt" viewBox="0 0 512.000000 512.000000"
 preserveAspectRatio="xMidYMid meet">

<g transform="translate(0.000000,512.000000) scale(0.100000,-0.100000)"
fill="#000000" stroke="none">
<path d="M956 4954 c-242 -54 -538 -240 -767 -482 -187 -198 -231 -322 -145
-408 43 -43 90 -51 180 -30 94 22 180 21 231 -3 22 -10 96 -71 164 -135 102
-96 140 -124 205 -156 106 -50 170 -64 291 -63 160 1 309 51 434 145 l53 40
72 -35 c94 -47 140 -58 260 -63 56 -2 151 -11 211 -19 235 -31 463 -46 770
-52 740 -13 1410 68 1786 217 243 96 364 196 404 334 63 217 -115 402 -510
529 -289 93 -631 144 -1165 174 -255 14 -338 15 -610 4 -315 -11 -513 -27
-710 -55 -58 -9 -141 -16 -185 -16 -97 0 -169 -18 -258 -64 l-67 -36 -63 46
c-77 57 -132 86 -222 114 -93 29 -262 36 -359 14z m224 -224 c69 -11 186 -63
233 -103 28 -24 28 -25 13 -54 -29 -57 -56 -176 -56 -248 1 -85 12 -140 47
-224 l27 -64 -24 -19 c-148 -120 -378 -142 -524 -51 -22 14 -84 68 -138 120
-147 140 -226 184 -361 199 l-58 7 33 35 c51 54 200 176 281 230 126 86 267
149 378 171 61 12 75 12 149 1z m2485 -30 c590 -52 1026 -165 1170 -304 58
-55 60 -90 11 -139 -74 -74 -222 -139 -451 -197 -358 -91 -772 -134 -1305
-133 -280 0 -677 16 -718 29 -10 3 -6 13 11 36 32 42 60 100 81 166 l18 52
788 0 788 0 30 29 c53 54 47 138 -14 178 -26 17 -74 18 -812 23 l-783 5 -23
67 c-13 36 -40 90 -59 120 -20 29 -32 54 -27 56 5 2 84 9 177 17 195 16 921
13 1118 -5z m-1603 -82 c161 -74 235 -266 163 -426 -51 -114 -150 -182 -275
-190 -105 -6 -175 22 -251 97 -177 177 -96 468 150 538 63 18 149 10 213 -19z"/>
<path d="M4334 4421 c-97 -59 -53 -211 62 -211 39 0 51 5 80 34 28 28 34 41
34 78 0 50 -18 82 -60 103 -39 20 -79 19 -116 -4z"/>
<path d="M423 3450 c-40 -9 -60 -25 -79 -61 -21 -42 -21 -3122 0 -3174 30 -71
-158 -65 2216 -65 2374 0 2186 -6 2216 65 12 29 14 268 14 1592 0 1525 0 1559
-20 1590 -38 62 125 58 -2190 60 -1169 0 -2140 -2 -2157 -7z m4135 -1647 l-3
-1418 -1995 0 -1995 0 -3 647 -2 648 1687 2 c1553 3 1690 4 1711 20 13 9 30
26 39 37 20 29 19 95 -2 127 -37 57 60 54 -1760 54 l-1675 0 0 650 0 650 2000
0 2000 0 -2 -1417z"/>
<path d="M1149 3001 c-107 -34 -207 -118 -264 -220 -78 -138 -74 -324 9 -465
64 -108 199 -197 331 -217 305 -48 575 225 526 530 -20 127 -113 266 -217 327
-110 65 -266 83 -385 45z m212 -223 c22 -6 58 -27 80 -47 160 -136 63 -402
-146 -401 -77 0 -130 25 -178 80 -100 117 -64 285 75 354 57 28 108 33 169 14z"/>
<path d="M2405 2997 c-264 -99 -383 -388 -262 -641 78 -163 235 -261 417 -261
182 0 339 98 417 261 52 109 61 202 31 324 -35 143 -154 269 -303 320 -83 28
-219 27 -300 -3z m251 -231 c223 -104 151 -436 -96 -436 -158 0 -264 144 -220
300 23 84 128 160 220 160 26 0 66 -10 96 -24z"/>
<path d="M3674 2996 c-83 -31 -122 -56 -183 -121 -174 -184 -169 -466 11 -646
143 -143 345 -176 532 -86 160 77 257 233 257 412 0 208 -129 386 -324 447
-85 26 -214 24 -293 -6z m233 -221 c61 -26 104 -65 129 -119 41 -87 28 -179
-34 -248 -49 -54 -102 -78 -177 -78 -208 -1 -306 267 -147 401 69 58 156 74
229 44z"/>
<path d="M4194 1906 c-42 -19 -64 -52 -64 -99 0 -47 21 -89 52 -104 75 -38
162 1 174 78 8 50 -18 103 -61 123 -40 19 -60 20 -101 2z"/>
<path d="M1160 1491 c-87 -28 -136 -57 -195 -116 -91 -92 -135 -199 -135 -330
0 -131 43 -235 133 -326 186 -186 472 -185 659 1 179 179 179 471 1 648 -32
32 -80 70 -107 85 -103 57 -249 73 -356 38z m240 -241 c76 -39 120 -115 120
-208 0 -226 -294 -311 -421 -122 -106 158 25 375 215 354 27 -3 66 -14 86 -24z"/>
<path d="M2430 1491 c-152 -49 -260 -152 -311 -299 -27 -75 -29 -206 -5 -280
81 -242 322 -379 559 -317 212 55 349 231 349 450 0 105 -21 175 -78 260 -109
166 -330 245 -514 186z m194 -225 c140 -42 205 -193 140 -325 -84 -168 -324
-167 -409 2 -63 128 1 280 137 322 56 18 75 18 132 1z"/>
<path d="M3704 1494 c-75 -20 -142 -61 -207 -125 -177 -177 -178 -465 -1 -646
252 -257 673 -151 780 196 18 59 18 193 0 252 -64 207 -242 341 -450 338 -39
0 -94 -7 -122 -15z m193 -229 c52 -16 112 -65 137 -113 37 -71 31 -166 -13
-231 -127 -190 -421 -105 -421 121 0 115 67 202 175 229 47 11 68 10 122 -6z"/>
</g>
</svg>
