<svg width="24" height="24" viewBox="0 0 24 24" fill="none" xmlns="http://www.w3.org/2000/svg">
<g id="Iconly/Bold/Document">
<g id="Document">
<path id="Document_2" fill-rule="evenodd" clip-rule="evenodd" d="M7.81 2H16.191C19.28 2 21 3.78 21 6.83V17.16C21 20.26 19.28 22 16.191 22H7.81C4.77 22 3 20.26 3 17.16V6.83C3 3.78 4.77 2 7.81 2ZM8.07995 6.66006V6.65006H11.0689C11.4999 6.65006 11.8499 7.00006 11.8499 7.42906C11.8499 7.87006 11.4999 8.22006 11.0689 8.22006H8.07995C7.64895 8.22006 7.29995 7.87006 7.29995 7.44006C7.29995 7.01006 7.64895 6.66006 8.07995 6.66006ZM8.07995 12.7401H15.9199C16.3499 12.7401 16.6999 12.3901 16.6999 11.9601C16.6999 11.5301 16.3499 11.1791 15.9199 11.1791H8.07995C7.64895 11.1791 7.29995 11.5301 7.29995 11.9601C7.29995 12.3901 7.64895 12.7401 8.07995 12.7401ZM8.07997 17.31H15.92C16.319 17.27 16.62 16.929 16.62 16.53C16.62 16.12 16.319 15.78 15.92 15.74H8.07997C7.77997 15.71 7.48997 15.85 7.32997 16.11C7.16997 16.36 7.16997 16.69 7.32997 16.95C7.48997 17.2 7.77997 17.35 8.07997 17.31Z" fill="#4DBCFE"/>
</g>
</g>
</svg>
