<svg width="24" height="24" viewBox="0 0 24 24" fill="none" xmlns="http://www.w3.org/2000/svg">
<g id="Iconly/Bold/Folder">
<g id="Folder">
<path id="Folder_2" fill-rule="evenodd" clip-rule="evenodd" d="M13.4498 4.88017H16.5198C20.2098 4.88017 22.0098 6.85017 21.9998 10.8902V15.7602C21.9998 19.6202 19.6198 22.0002 15.7498 22.0002H8.23976C4.38976 22.0002 1.99976 19.6202 1.99976 15.7502V8.24017C1.99976 4.10017 3.83976 2.00017 7.46976 2.00017H9.04976C9.98076 1.99017 10.8498 2.42017 11.4198 3.15017L12.2998 4.32017C12.5798 4.67017 12.9998 4.88017 13.4498 4.88017ZM7.3698 15.2902H16.6298C17.0398 15.2902 17.3698 14.9502 17.3698 14.5402C17.3698 14.1202 17.0398 13.7902 16.6298 13.7902H7.3698C6.9498 13.7902 6.6198 14.1202 6.6198 14.5402C6.6198 14.9502 6.9498 15.2902 7.3698 15.2902Z" fill="#8E7EFC"/>
</g>
</g>
</svg>
