<svg width="24" height="24" viewBox="0 0 24 24" fill="none" xmlns="http://www.w3.org/2000/svg">
<g id="Iconly/Bold/Search">
<g id="Search">
<path id="Search_2" fill-rule="evenodd" clip-rule="evenodd" d="M1.99976 10.6699C1.99976 5.88166 5.8401 2 10.5774 2C12.8523 2 15.0341 2.91344 16.6427 4.53936C18.2513 6.16529 19.155 8.37052 19.155 10.6699C19.155 15.4582 15.3147 19.3399 10.5774 19.3399C5.8401 19.3399 1.99976 15.4582 1.99976 10.6699ZM19.0131 17.6543L21.5678 19.7164H21.6121C22.129 20.2388 22.129 21.0858 21.6121 21.6082C21.0953 22.1306 20.2573 22.1306 19.7405 21.6082L17.6205 19.1784C17.4201 18.9766 17.3074 18.7023 17.3074 18.4164C17.3074 18.1304 17.4201 17.8561 17.6205 17.6543C18.007 17.2704 18.6266 17.2704 19.0131 17.6543Z" fill="#6E9CFD"/>
</g>
</g>
</svg>
