<svg width="28" height="28" viewBox="0 0 28 28" fill="none" xmlns="http://www.w3.org/2000/svg">
<g id="Iconly/Bold/Bag 2">
<g id="Bag 2">
<path id="Bag 2_2" fill-rule="evenodd" clip-rule="evenodd" d="M19.1549 7.5485H19.3938C22.5345 7.5485 25.0834 10.1735 25.0834 13.3935V19.8335C25.0834 23.0535 22.5345 25.6668 19.3938 25.6668H8.60634C5.46569 25.6668 2.91675 23.0535 2.91675 19.8335V13.3935C2.91675 10.1735 5.46569 7.5485 8.60634 7.5485H8.84531C8.86807 6.1485 9.40289 4.84183 10.3701 3.86183C11.3487 2.87016 12.6004 2.3685 14.0115 2.3335C16.8335 2.3335 19.1207 4.66683 19.1549 7.5485ZM11.5649 5.11016C10.9277 5.7635 10.5749 6.62683 10.5522 7.5485H17.4479C17.4138 5.63516 15.889 4.0835 14.0114 4.0835C13.1352 4.0835 12.2249 4.44516 11.5649 5.11016ZM18.3241 12.0402C18.8021 12.0402 19.1776 11.6435 19.1776 11.1652V9.81186C19.1776 9.33352 18.8021 8.93686 18.3241 8.93686C17.8576 8.93686 17.4707 9.33352 17.4707 9.81186V11.1652C17.4707 11.6435 17.8576 12.0402 18.3241 12.0402ZM10.427 11.1652C10.427 11.6435 10.0515 12.0402 9.57354 12.0402C9.107 12.0402 8.7201 11.6435 8.7201 11.1652V9.81186C8.7201 9.33352 9.107 8.93686 9.57354 8.93686C10.0515 8.93686 10.427 9.33352 10.427 9.81186V11.1652Z" fill="#0985B9"/>
</g>
</g>
</svg>
