<svg width="28" height="28" viewBox="0 0 28 28" fill="none" xmlns="http://www.w3.org/2000/svg">
<g id="Iconly/Bold/Graph">
<g id="Graph">
<path id="Graph_2" fill-rule="evenodd" clip-rule="evenodd" d="M14.3809 2.5781C14.5672 2.41087 14.8136 2.32321 15.0659 2.33446C20.3985 2.49409 24.8552 6.36526 25.6629 11.5392C25.668 11.5701 25.668 11.6016 25.6629 11.6325C25.6803 11.8773 25.5976 12.1188 25.433 12.3037C25.2684 12.4885 25.0356 12.6013 24.786 12.6173L15.8266 13.2081C15.5303 13.2344 15.2364 13.1369 15.0172 12.9396C14.798 12.7423 14.6737 12.4634 14.675 12.1715L14.0727 3.37103V3.22591C14.0837 2.9784 14.1946 2.74533 14.3809 2.5781ZM13.7663 15.5093L21.5318 15.0118L21.5846 15.0325C21.9181 15.0379 22.2357 15.1732 22.4675 15.4084C22.6994 15.6436 22.8264 15.9596 22.8208 16.2867C22.5148 20.7459 19.2456 24.4716 14.7966 25.4314C10.3476 26.3913 5.78691 24.3548 3.60245 20.433C2.96013 19.3035 2.55423 18.0595 2.40857 16.7739C2.35208 16.393 2.32734 16.0082 2.33461 15.6233C2.34934 10.8817 5.7252 6.78908 10.4488 5.78626C11.0206 5.67923 11.5939 5.96473 11.8434 6.48076C11.9055 6.5744 11.9552 6.67541 11.9913 6.78137C12.0799 8.14827 12.1717 9.50222 12.2632 10.8505C12.3354 11.9151 12.4074 12.9763 12.4773 14.0374C12.4737 14.2874 12.513 14.5362 12.5935 14.7733C12.7831 15.24 13.255 15.5361 13.7663 15.5093Z" fill="#75578E"/>
</g>
</g>
</svg>
