<svg width="28" height="28" viewBox="0 0 28 28" fill="none" xmlns="http://www.w3.org/2000/svg">
<g id="Iconly/Bold/Search">
<g id="Search">
<path id="Search_2" fill-rule="evenodd" clip-rule="evenodd" d="M2.33337 12.4484C2.33337 6.8621 6.81377 2.3335 12.3406 2.3335C14.9947 2.3335 17.5401 3.39917 19.4168 5.29609C21.2935 7.193 22.3479 9.76577 22.3479 12.4484C22.3479 18.0347 17.8675 22.5633 12.3406 22.5633C6.81377 22.5633 2.33337 18.0347 2.33337 12.4484ZM22.1823 20.5968L25.1627 23.0026H25.2145C25.8174 23.6121 25.8174 24.6002 25.2145 25.2097C24.6115 25.8192 23.6339 25.8192 23.0309 25.2097L20.5575 22.375C20.3237 22.1395 20.1923 21.8196 20.1923 21.4859C20.1923 21.1522 20.3237 20.8323 20.5575 20.5968C21.0085 20.1489 21.7313 20.1489 22.1823 20.5968Z" fill="#00A198"/>
</g>
</g>
</svg>
